<svg fill="none" height="24" width="23" xmlns="http://www.w3.org/2000/svg"><path d="m11.5.45a11.26 11.26 0 0 0 -5.796 1.564 11.64 11.64 0 0 0 -4.14 4.14 11.26 11.26 0 0 0 -1.564 5.796 11.26 11.26 0 0 0 1.564 5.796 11.64 11.64 0 0 0 4.14 4.14c1.779 1.043 3.711 1.564 5.796 1.564s4.017-.521 5.796-1.564a11.64 11.64 0 0 0 4.14-4.14c1.043-1.779 1.564-3.711 1.564-5.796s-.521-4.017-1.564-5.796a11.64 11.64 0 0 0 -4.14-4.14 11.26 11.26 0 0 0 -5.796-1.564zm-2.875 16.284h-1.909v-9.568h1.909zm7.659 0h-5.75v-1.909h5.75zm0-3.818h-5.75v-1.932h5.75zm0-3.841h-5.75v-1.909h5.75z" fill="#93003f"/></svg>